<svg width="271" height="109" viewBox="0 0 271 109" fill="none" xmlns="http://www.w3.org/2000/svg">
<path d="M239.989 23.3508C245.775 23.3508 251.02 24.7011 255.726 27.4017C260.509 30.0252 264.25 33.7676 266.95 38.6287C269.65 43.4127 271 49.0069 271 55.4114C271 61.8158 269.65 67.4485 266.95 72.3097C264.25 77.0937 260.509 80.8361 255.726 83.5367C251.02 86.1602 245.775 87.4719 239.989 87.4719C232.044 87.4719 225.795 84.9642 221.244 79.9487V109H203.193V21.1628H220.434V31.4527C224.908 26.0514 231.426 23.3508 239.989 23.3508ZM236.865 72.6569C241.493 72.6569 245.273 71.1137 248.205 68.0273C251.213 64.8636 252.717 60.6583 252.717 55.4114C252.717 50.1644 251.213 45.9977 248.205 42.9112C245.273 39.7476 241.493 38.1658 236.865 38.1658C232.236 38.1658 228.418 39.7476 225.409 42.9112C222.478 45.9977 221.012 50.1644 221.012 55.4114C221.012 60.6583 222.478 64.8636 225.409 68.0273C228.418 71.1137 232.236 72.6569 236.865 72.6569Z" fill="#F8D247"/>
<path fill-rule="evenodd" clip-rule="evenodd" d="M44.1385 56.1908L47.4653 60.0558C51.2688 63.4343 58.652 70.1912 66.147 68.8399C73.642 67.4885 81.0252 58.0287 88.5203 56.6773C96.0153 55.3259 103.398 62.0829 110.894 61.4072C118.389 60.7315 125.772 52.6232 133.267 51.2718C140.762 49.9204 148.145 55.3259 155.64 55.3259C163.135 55.3259 174.748 59.4747 177.288 41.5958L178.013 44.8797V81.0024H174.322C170.518 81.0024 163.135 81.0024 155.64 81.0024C148.145 81.0024 140.762 81.0024 133.267 81.0024C125.772 81.0024 118.389 81.0024 110.894 81.0024C103.398 81.0024 96.0153 81.0024 88.5203 81.0024C81.0252 81.0024 73.642 81.0024 66.147 81.0024C58.652 81.0024 51.2688 81.0024 47.4653 81.0024H43.7738L44.1385 56.1908Z" fill="#6482FF"/>
<path d="M57.3291 86.35C50.9463 86.35 45.4264 84.9936 40.7694 82.2809C36.1398 79.5408 32.5649 75.7321 30.0446 70.8547C27.5244 65.9499 26.2643 60.2641 26.2643 53.7975C26.2643 47.276 27.5244 41.5766 30.0446 36.6992C32.5649 31.7944 36.1398 27.9857 40.7694 25.2729C45.4264 22.5328 50.9463 21.1628 57.3291 21.1628C57.9885 21.1628 165.722 21.1776 166.363 21.2068C171.923 21.4606 176.78 22.8161 180.931 25.2731C185.588 27.9858 189.177 31.7946 191.697 36.6993C194.217 41.5767 195.477 47.2762 195.477 53.7976C195.477 60.2643 194.217 65.95 191.697 70.8548C189.177 75.7322 185.588 79.541 180.931 82.2811C176.78 84.7135 171.923 86.0554 166.363 86.3067C165.722 86.3357 57.9885 86.35 57.3291 86.35ZM57.4112 72.7864C58.0577 72.7864 165.764 72.7459 166.363 72.6644C168.454 72.3799 170.256 71.5986 171.768 70.3205C173.713 68.649 175.178 66.3747 176.164 63.4976C177.178 60.6205 177.685 57.3461 177.685 53.6743C177.685 50.0026 177.178 46.7281 176.164 43.851C175.178 40.9739 173.713 38.6996 171.768 37.0282C170.256 35.7288 168.454 34.9345 166.363 34.6452C165.764 34.5624 58.0577 34.5208 57.4112 34.5208C54.4801 34.5208 52.0146 35.3565 50.0149 37.028C48.0425 38.6995 46.5495 40.9738 45.5359 43.8509C44.5498 46.728 44.0567 50.0024 44.0567 53.6742C44.0567 57.3459 44.5498 60.6204 45.5359 63.4975C46.5495 66.3746 48.0425 68.6489 50.0149 70.3203C52.0146 71.9644 54.4801 72.7864 57.4112 72.7864Z" fill="#F8D247"/>
<path d="M0 0H18.0511V79.5429V85.8807H0V0Z" fill="#F8D247"/>
</svg>
